<svg width="19" height="19" viewBox="0 0 19 19" fill="none" xmlns="http://www.w3.org/2000/svg">
<path d="M10.1095 0C11.1408 0.00275 11.6642 0.00825 12.1161 0.0210833L12.2939 0.0275C12.4993 0.0348333 12.7019 0.0439999 12.9466 0.0549999C13.9219 0.100833 14.5874 0.254833 15.1714 0.48125C15.7764 0.714083 16.286 1.02942 16.7957 1.53817C17.262 1.99625 17.6227 2.5506 17.8526 3.1625C18.079 3.74642 18.233 4.41192 18.2789 5.38817C18.2899 5.632 18.299 5.83458 18.3064 6.04083L18.3119 6.21867C18.3256 6.66967 18.3311 7.19308 18.3329 8.22433L18.3339 8.90817V10.109C18.3361 10.7776 18.3291 11.4462 18.3128 12.1147L18.3073 12.2925C18.2999 12.4987 18.2908 12.7013 18.2798 12.9452C18.2339 13.9214 18.0781 14.586 17.8526 15.1708C17.6227 15.7827 17.262 16.3371 16.7957 16.7952C16.3376 17.2615 15.7833 17.6222 15.1714 17.8521C14.5874 18.0785 13.9219 18.2325 12.9466 18.2783L12.2939 18.3058L12.1161 18.3113C11.6642 18.3242 11.1408 18.3306 10.1095 18.3324L9.42569 18.3333H8.22577C7.55684 18.3357 6.88792 18.3287 6.21919 18.3123L6.04135 18.3068C5.82375 18.2985 5.60619 18.289 5.38869 18.2783C4.41335 18.2325 3.74785 18.0785 3.16302 17.8521C2.55145 17.6221 1.99743 17.2614 1.5396 16.7952C1.07297 16.3372 0.711954 15.7828 0.481771 15.1708C0.255355 14.5869 0.101355 13.9214 0.0555213 12.9452L0.0280214 12.2925L0.0234382 12.1147C0.00654036 11.4462 -0.00109935 10.7776 0.000521397 10.109V8.22433C-0.00201584 7.55572 0.0047071 6.8871 0.0206881 6.21867L0.0271048 6.04083C0.0344381 5.83458 0.0436047 5.632 0.0546047 5.38817C0.100438 4.41192 0.254438 3.74733 0.480855 3.1625C0.711574 2.55035 1.07323 1.99598 1.54052 1.53817C1.99808 1.07209 2.55178 0.711401 3.16302 0.48125C3.74785 0.254833 4.41244 0.100833 5.38869 0.0549999C5.63252 0.0439999 5.83602 0.0348333 6.04135 0.0275L6.21919 0.0219999C6.88761 0.00571331 7.55623 -0.00131514 8.22485 0.0009166L10.1095 0ZM9.16719 4.58333C7.95161 4.58333 6.78582 5.06622 5.92628 5.92576C5.06674 6.7853 4.58385 7.95109 4.58385 9.16667C4.58385 10.3822 5.06674 11.548 5.92628 12.4076C6.78582 13.2671 7.95161 13.75 9.16719 13.75C10.3828 13.75 11.5486 13.2671 12.4081 12.4076C13.2676 11.548 13.7505 10.3822 13.7505 9.16667C13.7505 7.95109 13.2676 6.7853 12.4081 5.92576C11.5486 5.06622 10.3828 4.58333 9.16719 4.58333ZM9.16719 6.41667C9.52832 6.41661 9.88593 6.48768 10.2196 6.62582C10.5533 6.76397 10.8565 6.96648 11.1119 7.2218C11.3673 7.47712 11.5699 7.78024 11.7081 8.11386C11.8464 8.44749 11.9176 8.80507 11.9176 9.16621C11.9177 9.52734 11.8466 9.88495 11.7085 10.2186C11.5703 10.5523 11.3678 10.8555 11.1125 11.1109C10.8572 11.3663 10.5541 11.5689 10.2204 11.7072C9.88683 11.8454 9.52924 11.9166 9.1681 11.9167C8.43876 11.9167 7.73929 11.6269 7.22356 11.1112C6.70784 10.5955 6.4181 9.89601 6.4181 9.16667C6.4181 8.43732 6.70784 7.73785 7.22356 7.22212C7.73929 6.7064 8.43876 6.41667 9.1681 6.41667M13.9806 3.20833C13.6767 3.20833 13.3853 3.32905 13.1704 3.54394C12.9555 3.75883 12.8348 4.05027 12.8348 4.35417C12.8348 4.65806 12.9555 4.94951 13.1704 5.16439C13.3853 5.37928 13.6767 5.5 13.9806 5.5C14.2845 5.5 14.5759 5.37928 14.7908 5.16439C15.0057 4.94951 15.1264 4.65806 15.1264 4.35417C15.1264 4.05027 15.0057 3.75883 14.7908 3.54394C14.5759 3.32905 14.2845 3.20833 13.9806 3.20833Z" fill="#1D1F20"/>
</svg>
