<svg width="64" height="64" viewBox="0 0 64 64" fill="none" xmlns="http://www.w3.org/2000/svg">
<path d="M32 10.24C44.032 10.24 53.76 19.968 53.76 32C53.76 44.032 44.032 53.76 32 53.76C19.968 53.76 10.24 44.032 10.24 32C10.24 19.968 19.968 10.24 32 10.24ZM32 51.2C42.624 51.2 51.2 42.624 51.2 32C51.2 21.376 42.624 12.8 32 12.8C21.376 12.8 12.8 21.376 12.8 32C12.8 42.624 21.376 51.2 32 51.2Z" fill="white"/>
<path d="M31.616 19.584L44.032 32L31.616 44.416L29.824 42.624L40.448 32L29.824 21.376L31.616 19.584Z" fill="white"/>
<path d="M42.24 33.28L20.48 33.28L20.48 30.72L42.24 30.72L42.24 33.28Z" fill="white"/>
</svg>
