<svg preserveAspectRatio="none" width="100%" height="100%" overflow="visible" style="display: block;" viewBox="0 0 65 65" fill="none" xmlns="http://www.w3.org/2000/svg">
<g id="fluent:ios-arrow-24-filled">
<path id="Vector" d="M34.469 9.98562C34.7133 9.72706 34.9043 9.4229 35.0311 9.09051C35.1579 8.75812 35.218 8.40401 35.2079 8.0484C35.1979 7.69279 35.1179 7.34264 34.9725 7.01795C34.8271 6.69326 34.6192 6.40038 34.3606 6.15604C34.1021 5.9117 33.7979 5.72068 33.4655 5.59389C33.1331 5.4671 32.779 5.40702 32.4234 5.41708C32.0678 5.42714 31.7176 5.50714 31.393 5.65252C31.0683 5.7979 30.7754 6.00581 30.531 6.26438L7.51021 30.6394C7.0348 31.1422 6.76991 31.808 6.76991 32.5C6.76991 33.192 7.0348 33.8578 7.51021 34.3606L30.531 58.7383C30.7738 59.0026 31.0666 59.2159 31.3925 59.366C31.7184 59.5161 32.0708 59.6 32.4294 59.6127C32.788 59.6255 33.1455 59.5668 33.4812 59.4402C33.8169 59.3136 34.1241 59.1216 34.385 58.8753C34.6459 58.6289 34.8552 58.3332 35.0008 58.0053C35.1464 57.6774 35.2254 57.3238 35.2332 56.9651C35.2411 56.6064 35.1775 56.2497 35.0463 55.9157C34.9151 55.5818 34.7189 55.2773 34.469 55.0198L13.2031 32.5L34.469 9.98562Z" fill="#5A5D65"/>
</g>
</svg>
