<svg width="12" height="12" viewBox="0 0 12 12" fill="none" xmlns="http://www.w3.org/2000/svg">
<path d="M4.848 5.316C4.878 5.118 4.944 4.944 5.028 4.794C5.112 4.644 5.232 4.518 5.382 4.422C5.526 4.332 5.706 4.29 5.928 4.284C6.066 4.29 6.192 4.314 6.306 4.362C6.426 4.416 6.534 4.488 6.618 4.578C6.702 4.668 6.768 4.776 6.822 4.896C6.876 5.016 6.9 5.148 6.906 5.28H7.98C7.968 4.998 7.914 4.74 7.812 4.506C7.71 4.272 7.572 4.068 7.392 3.9C7.212 3.732 6.996 3.6 6.744 3.504C6.492 3.408 6.216 3.366 5.91 3.366C5.52 3.366 5.178 3.432 4.89 3.57C4.602 3.708 4.362 3.888 4.17 4.122C3.978 4.356 3.834 4.626 3.744 4.938C3.654 5.25 3.6 5.574 3.6 5.922V6.084C3.6 6.432 3.648 6.756 3.738 7.068C3.828 7.38 3.972 7.65 4.164 7.878C4.356 8.106 4.596 8.292 4.884 8.424C5.172 8.556 5.514 8.628 5.904 8.628C6.186 8.628 6.45 8.58 6.696 8.49C6.942 8.4 7.158 8.274 7.344 8.112C7.53 7.95 7.68 7.764 7.788 7.548C7.896 7.332 7.962 7.104 7.968 6.858H6.894C6.888 6.984 6.858 7.098 6.804 7.206C6.75 7.314 6.678 7.404 6.588 7.482C6.498 7.56 6.396 7.62 6.276 7.662C6.162 7.704 6.042 7.716 5.916 7.722C5.7 7.716 5.52 7.674 5.382 7.584C5.232 7.488 5.112 7.362 5.028 7.212C4.944 7.062 4.878 6.882 4.848 6.684C4.818 6.486 4.8 6.282 4.8 6.084V5.922C4.8 5.712 4.818 5.514 4.848 5.316ZM6 0C2.688 0 0 2.688 0 6C0 9.312 2.688 12 6 12C9.312 12 12 9.312 12 6C12 2.688 9.312 0 6 0ZM6 10.8C3.354 10.8 1.2 8.646 1.2 6C1.2 3.354 3.354 1.2 6 1.2C8.646 1.2 10.8 3.354 10.8 6C10.8 8.646 8.646 10.8 6 10.8Z" fill="#1B1C1C"/>
</svg>
