<svg width="85" height="85" viewBox="0 0 85 85" fill="none" xmlns="http://www.w3.org/2000/svg">
<path d="M58.4375 19.4792H61.9792C65.8927 19.4792 69.0625 20.8781 69.0625 24.7917V31.875C69.0625 33.7536 68.3162 35.5553 66.9878 36.8837C65.6595 38.2121 63.8578 38.9583 61.9792 38.9583H37.1875C36.2482 38.9583 35.3474 39.3315 34.6832 39.9957C34.019 40.6599 33.6458 41.5607 33.6458 42.5V70.8333C33.6458 71.7726 34.019 72.6735 34.6832 73.3377C35.3474 74.0019 36.2482 74.375 37.1875 74.375H40.7292M58.4375 19.4792V14.1667C58.4375 13.2274 58.0644 12.3265 57.4002 11.6623C56.736 10.9981 55.8351 10.625 54.8958 10.625H19.4792C18.5399 10.625 17.639 10.9981 16.9748 11.6623C16.3106 12.3265 15.9375 13.2274 15.9375 14.1667V24.7917C15.9375 25.731 16.3106 26.6318 16.9748 27.296C17.639 27.9602 18.5399 28.3333 19.4792 28.3333H54.8958C55.8351 28.3333 56.736 27.9602 57.4002 27.296C58.0644 26.6318 58.4375 25.731 58.4375 24.7917V19.4792Z" stroke="black" stroke-width="4" stroke-linecap="round" stroke-linejoin="round"/>
</svg>
