<svg width="85" height="85" viewBox="0 0 85 85" fill="none" xmlns="http://www.w3.org/2000/svg">
<path d="M69.796 72.4523C69.1318 73.1165 68.2309 73.4897 67.2916 73.4897H17.7083C16.769 73.4897 15.8681 73.1165 15.204 72.4523C14.5398 71.7881 14.1666 70.8873 14.1666 69.948V65.5351C14.1666 55.5972 28.2412 47.8126 42.5 47.8126C56.7587 47.8126 70.8475 55.5972 70.8333 65.5351V69.948C70.8333 70.8873 70.4602 71.7881 69.796 72.4523Z" stroke="black" stroke-width="4" stroke-linecap="round" stroke-linejoin="round"/>
<path d="M54.2925 29.1593C54.934 27.6107 55.2641 25.9509 55.2641 24.2747C55.2641 20.8894 53.9193 17.6428 51.5256 15.249C49.1318 12.8553 45.8852 11.5105 42.5 11.5105C39.1147 11.5105 35.8681 12.8553 33.4743 15.249C31.0806 17.6428 29.7358 20.8894 29.7358 24.2747C29.7358 25.9509 30.0659 27.6107 30.7074 29.1593C31.3489 30.7079 32.2891 32.115 33.4743 33.3003C34.6596 34.4856 36.0667 35.4258 37.6153 36.0672C39.1639 36.7087 40.8237 37.0388 42.5 37.0388C44.1762 37.0388 45.836 36.7087 47.3846 36.0672C48.9332 35.4258 50.3403 34.4856 51.5256 33.3003C52.7109 32.115 53.6511 30.7079 54.2925 29.1593Z" stroke="black" stroke-width="4" stroke-linecap="round" stroke-linejoin="round"/>
</svg>
