<svg width="20" height="19" viewBox="0 0 20 19" fill="none" xmlns="http://www.w3.org/2000/svg">
<path d="M9.9 0C15.3691 0 19.8 3.49594 19.8 7.80656C19.8 12.1172 15.3691 15.6131 9.9 15.6131C9.29844 15.6131 8.71062 15.5719 8.14 15.4894C7.56937 15.8916 4.26938 18.2084 3.95656 18.2531C3.95656 18.2531 3.82938 18.3013 3.71937 18.2394C3.60938 18.1775 3.63 18.0091 3.63 18.0091C3.66438 17.7822 4.48938 14.9428 4.64062 14.4169C1.85281 13.0384 0 10.5909 0 7.80313C0 3.4925 4.43094 0 9.9 0ZM2.96312 5.4725C2.65375 5.4725 2.40281 5.72344 2.40281 6.03281C2.40281 6.34219 2.65375 6.59312 2.96312 6.59312H3.85344V9.98594C3.85344 10.2884 4.11125 10.5325 4.42406 10.5325C4.73688 10.5325 4.99469 10.2884 4.99469 9.98594V6.59312H5.885C6.19438 6.59312 6.44531 6.34219 6.44531 6.03281C6.44531 5.72344 6.19438 5.4725 5.885 5.4725H2.95969H2.96312ZM7.80313 5.4725C7.43188 5.47937 7.13969 5.76125 7.04344 6.03625L5.67875 9.63188C5.50688 10.1716 5.65813 10.3709 5.81281 10.4431C5.92281 10.4947 6.05 10.5222 6.17719 10.5222C6.41437 10.5222 6.59656 10.4259 6.65156 10.2712L6.93344 9.52875H8.67625L8.95813 10.2678C9.01313 10.4225 9.19531 10.5188 9.4325 10.5188C9.55969 10.5188 9.68344 10.4913 9.79688 10.4397C9.955 10.3675 10.1062 10.1681 9.93094 9.62844L8.56625 6.03625C8.47 5.76125 8.17781 5.47937 7.80313 5.4725ZM14.0216 5.4725C13.7053 5.4725 13.4509 5.73031 13.4509 6.04313V9.95156C13.4509 10.2678 13.7087 10.5222 14.0216 10.5222C14.3344 10.5222 14.5922 10.2644 14.5922 9.95156V8.70719L14.7916 8.50781L16.1287 10.2816C16.2388 10.4259 16.4037 10.5084 16.5859 10.5084C16.7097 10.5084 16.83 10.4706 16.9297 10.395C17.05 10.3022 17.1291 10.1681 17.1497 10.0169C17.1703 9.86563 17.1325 9.71438 17.0397 9.59406L15.6337 7.73094L16.9366 6.43156C17.0259 6.34219 17.0706 6.21844 17.0638 6.08437C17.0569 5.95031 16.995 5.82313 16.8953 5.72344C16.7887 5.61688 16.6444 5.555 16.5034 5.555C16.3797 5.555 16.2697 5.59969 16.1872 5.68219L14.5956 7.27719V6.05C14.5956 5.73375 14.3378 5.47937 14.025 5.47937L14.0216 5.4725ZM10.8831 5.4725C10.5634 5.4725 10.3022 5.73031 10.3022 6.04313V9.92063C10.3022 10.2094 10.5463 10.4431 10.8488 10.4466H12.6809C12.9834 10.4466 13.2275 10.2094 13.2275 9.92063C13.2275 9.63188 12.98 9.39812 12.6809 9.39812H11.4675V6.04313C11.4675 5.72688 11.2063 5.4725 10.8831 5.4725ZM8.37375 8.51812H7.2325L7.80313 6.89906L8.37375 8.51812Z" fill="#1D1F20"/>
</svg>
