<svg width="19" height="19" viewBox="0 0 19 19" fill="none" xmlns="http://www.w3.org/2000/svg">
<path d="M16.9762 1.48411e-06L1.35352 1.18328e-07C0.605143 5.29033e-08 -5.16512e-08 0.59082 -1.15511e-07 1.32129L-1.48693e-06 17.0085C-1.55079e-06 17.7389 0.605142 18.3333 1.35351 18.3333L16.9762 18.3333C17.7246 18.3333 18.3333 17.7389 18.3333 17.012L18.3333 1.32129C18.3333 0.590822 17.7246 1.54953e-06 16.9762 1.48411e-06ZM5.43913 15.6227L2.71777 15.6227L2.71777 6.87142L5.43913 6.87142L5.43913 15.6227ZM4.07845 5.67904C3.20475 5.67904 2.49935 4.97363 2.49935 4.10351C2.49935 3.2334 3.20475 2.52799 4.07845 2.52799C4.94857 2.52799 5.65397 3.2334 5.65397 4.10352C5.65397 4.97005 4.94857 5.67904 4.07845 5.67904ZM15.6227 15.6227L12.9049 15.6227L12.9049 11.3688C12.9049 10.3555 12.887 9.0485 11.4906 9.0485C10.0762 9.0485 9.86133 10.1549 9.86133 11.2972L9.86133 15.6227L7.14713 15.6227L7.14714 6.87142L9.7539 6.87142L9.7539 8.06738L9.78971 8.06738C10.1514 7.37988 11.0394 6.653 12.3607 6.653C15.1143 6.653 15.6227 8.46484 15.6227 10.821L15.6227 15.6227Z" fill="#1D1F20"/>
</svg>
