<svg width="19" height="15" viewBox="0 0 19 15" fill="none" xmlns="http://www.w3.org/2000/svg">
<path d="M1.83333 14.6667C1.32917 14.6667 0.897722 14.4873 0.539 14.1286C0.180278 13.7699 0.000611111 13.3381 0 12.8333V1.83333C0 1.32917 0.179667 0.897722 0.539 0.539C0.898333 0.180278 1.32978 0.000611111 1.83333 0H16.5C17.0042 0 17.4359 0.179667 17.7952 0.539C18.1546 0.898333 18.3339 1.32978 18.3333 1.83333V12.8333C18.3333 13.3375 18.154 13.7692 17.7952 14.1286C17.4365 14.4879 17.0048 14.6673 16.5 14.6667H1.83333ZM9.40775 8.05567C9.49147 8.03244 9.57153 7.99792 9.64792 7.95208L16.1333 3.89583C16.2556 3.81944 16.3472 3.72411 16.4083 3.60983C16.4694 3.49556 16.5 3.36936 16.5 3.23125C16.5 2.92569 16.3701 2.69653 16.1104 2.54375C15.8507 2.39097 15.5833 2.39861 15.3083 2.56667L9.16667 6.41667L3.025 2.56667C2.75 2.39861 2.48264 2.39494 2.22292 2.55567C1.96319 2.71639 1.83333 2.94158 1.83333 3.23125C1.83333 3.38403 1.86389 3.51786 1.925 3.63275C1.98611 3.74764 2.07778 3.83533 2.2 3.89583L8.68542 7.95208C8.76181 7.99792 8.84217 8.03244 8.9265 8.05567C9.01083 8.07889 9.09089 8.09019 9.16667 8.08958C9.24244 8.08897 9.3228 8.07767 9.40775 8.05567Z" fill="#1D1F20"/>
</svg>
