<svg preserveAspectRatio="none" width="100%" height="100%" overflow="visible" style="display: block;" viewBox="0 0 85 85" fill="none" xmlns="http://www.w3.org/2000/svg">
<g id="ic:round-plus">
<path id="Vector" d="M63.75 46.0346H46.0417V63.7429C46.0417 64.6822 45.6685 65.5831 45.0043 66.2473C44.3401 66.9114 43.4393 67.2846 42.5 67.2846C41.5607 67.2846 40.6599 66.9114 39.9957 66.2473C39.3315 65.5831 38.9583 64.6822 38.9583 63.7429V46.0346H21.25C20.3107 46.0346 19.4099 45.6614 18.7457 44.9973C18.0815 44.3331 17.7083 43.4322 17.7083 42.4929C17.7083 41.5536 18.0815 40.6528 18.7457 39.9886C19.4099 39.3244 20.3107 38.9512 21.25 38.9512H38.9583V21.2429C38.9583 20.3036 39.3315 19.4028 39.9957 18.7386C40.6599 18.0744 41.5607 17.7013 42.5 17.7013C43.4393 17.7013 44.3401 18.0744 45.0043 18.7386C45.6685 19.4028 46.0417 20.3036 46.0417 21.2429V38.9512H63.75C64.6893 38.9512 65.5901 39.3244 66.2543 39.9886C66.9185 40.6528 67.2917 41.5536 67.2917 42.4929C67.2917 43.4322 66.9185 44.3331 66.2543 44.9973C65.5901 45.6614 64.6893 46.0346 63.75 46.0346Z" fill="#214151"/>
</g>
</svg>
