<svg preserveAspectRatio="none" width="100%" height="100%" overflow="visible" style="display: block;" viewBox="0 0 90 89" fill="none" xmlns="http://www.w3.org/2000/svg">
<g id="ic:round-plus">
<path id="Vector" d="M67.5 48.2009H48.75V66.7426C48.75 67.7261 48.3549 68.6693 47.6516 69.3648C46.9484 70.0602 45.9946 70.4509 45 70.4509C44.0054 70.4509 43.0516 70.0602 42.3484 69.3648C41.6451 68.6693 41.25 67.7261 41.25 66.7426V48.2009H22.5C21.5054 48.2009 20.5516 47.8102 19.8484 47.1148C19.1451 46.4193 18.75 45.4761 18.75 44.4926C18.75 43.5091 19.1451 42.5658 19.8484 41.8704C20.5516 41.1749 21.5054 40.7842 22.5 40.7842H41.25V22.2426C41.25 21.2591 41.6451 20.3158 42.3484 19.6204C43.0516 18.9249 44.0054 18.5343 45 18.5343C45.9946 18.5343 46.9484 18.9249 47.6516 19.6204C48.3549 20.3158 48.75 21.2591 48.75 22.2426V40.7842H67.5C68.4946 40.7842 69.4484 41.1749 70.1517 41.8704C70.8549 42.5658 71.25 43.5091 71.25 44.4926C71.25 45.4761 70.8549 46.4193 70.1517 47.1148C69.4484 47.8102 68.4946 48.2009 67.5 48.2009Z" fill="#105D90"/>
</g>
</svg>
