<svg width="34" height="34" viewBox="0 0 34 34" fill="none" xmlns="http://www.w3.org/2000/svg">
<path d="M8.49935 28.3333C7.72018 28.3333 7.0534 28.0561 6.49902 27.5018C5.94463 26.9474 5.66696 26.2801 5.66602 25.5V22.6667C5.66602 22.2653 5.80202 21.9291 6.07402 21.658C6.34602 21.387 6.68224 21.251 7.08268 21.25C7.48313 21.2491 7.81982 21.3851 8.09277 21.658C8.36571 21.931 8.50124 22.2672 8.49935 22.6667V25.5H25.4993V22.6667C25.4993 22.2653 25.6353 21.9291 25.9073 21.658C26.1793 21.387 26.5156 21.251 26.916 21.25C27.3165 21.2491 27.6532 21.3851 27.9261 21.658C28.199 21.931 28.3346 22.2672 28.3327 22.6667V25.5C28.3327 26.2792 28.0555 26.9464 27.5011 27.5018C26.9467 28.0571 26.2795 28.3343 25.4993 28.3333H8.49935ZM15.5827 11.1208L12.9264 13.7771C12.6431 14.0604 12.3069 14.1964 11.9178 14.1851C11.5287 14.1738 11.192 14.026 10.9077 13.7417C10.648 13.4583 10.512 13.1278 10.4997 12.75C10.4874 12.3722 10.6234 12.0417 10.9077 11.7583L16.0077 6.65834C16.1493 6.51668 16.3028 6.41656 16.4681 6.35801C16.6334 6.29945 16.8105 6.2697 16.9993 6.26876C17.1882 6.26782 17.3653 6.29756 17.5306 6.35801C17.6959 6.41845 17.8493 6.51856 17.991 6.65834L23.091 11.7583C23.3743 12.0417 23.5103 12.3722 23.499 12.75C23.4877 13.1278 23.3517 13.4583 23.091 13.7417C22.8077 14.025 22.4715 14.1728 22.0823 14.1851C21.6932 14.1974 21.3565 14.0614 21.0723 13.7771L18.416 11.1208V21.25C18.416 21.6514 18.28 21.9881 18.008 22.2601C17.736 22.5321 17.3998 22.6676 16.9993 22.6667C16.5989 22.6657 16.2627 22.5297 15.9907 22.2587C15.7187 21.9876 15.5827 21.6514 15.5827 21.25V11.1208Z" fill="black"/>
</svg>
